<svg width="2048"
     height="2048"
     viewBox="0 0 2048 2048"
     fill="none"
     xmlns="http://www.w3.org/2000/svg">
  <path d="M0.000 1024.000 L 0.000 2048.000 1024.000 2048.000 L 2048.000 2048.000 2048.000 1024.000 L 2048.000 0.000 1024.000 0.000 L 0.000 0.000 0.000 1024.000 M675.840 565.357 C 775.008 612.482,795.380 742.030,715.093 814.976 C 625.736 896.162,483.829 845.684,463.222 725.381 C 453.788 670.304,480.577 609.174,527.925 577.736 C 558.385 557.512,576.595 552.666,617.813 553.815 C 649.650 554.702,656.132 555.991,675.840 565.357 M1526.664 566.094 C 1586.728 595.114,1622.876 662.384,1612.126 725.138 C 1594.682 826.979,1489.773 883.195,1397.760 840.006 C 1319.846 803.435,1288.263 709.093,1327.888 631.288 C 1337.124 613.154,1364.056 584.716,1381.897 574.261 C 1411.880 556.690,1428.603 552.719,1467.733 553.877 C 1500.060 554.834,1505.837 556.032,1526.664 566.094 M524.750 1188.300 C 685.357 1272.755,782.602 1313.523,881.113 1337.698 C 945.223 1353.431,988.658 1358.961,1047.893 1358.933 C 1189.737 1358.865,1322.624 1314.935,1511.272 1205.749 C 1545.338 1186.032,1553.337 1182.754,1566.886 1182.958 C 1604.209 1183.519,1626.248 1222.373,1608.264 1255.907 C 1593.584 1283.280,1408.991 1379.205,1302.588 1414.754 C 1206.437 1446.878,1141.650 1458.120,1049.600 1458.655 C 936.685 1459.312,843.615 1439.640,709.973 1386.870 C 617.569 1350.383,460.642 1271.877,444.704 1254.163 C 422.121 1229.066,431.072 1189.563,462.507 1175.592 C 479.701 1167.950,490.080 1170.069,524.750 1188.300 "
        fill="#000"
        stroke="none"
        fill-rule="evenodd"></path>
</svg>